<svg width="512" height="512" viewBox="0 0 512 512" fill="none" xmlns="http://www.w3.org/2000/svg">
<rect width="512" height="512" rx="256" fill="#BF72FF"/>
<path d="M256 372.667C201.003 372.667 173.505 372.667 156.413 355.575C139.333 338.507 139.333 310.997 139.333 256C139.333 201.004 139.333 173.505 156.413 156.413C173.516 139.333 201.003 139.333 256 139.333C310.996 139.333 338.495 139.333 355.575 156.413C372.666 173.517 372.666 201.004 372.666 256C372.666 310.997 372.666 338.495 355.575 355.575C338.506 372.667 310.996 372.667 256 372.667Z" fill="white"/>
<path d="M256 206.417C248.755 206.417 242.875 212.297 242.875 219.542C242.875 221.862 241.953 224.088 240.312 225.729C238.671 227.37 236.446 228.292 234.125 228.292C231.804 228.292 229.579 227.37 227.938 225.729C226.297 224.088 225.375 221.862 225.375 219.542C225.375 214.524 226.608 209.584 228.965 205.154C231.323 200.725 234.732 196.943 238.894 194.14C243.055 191.338 247.842 189.601 252.832 189.082C257.823 188.563 262.864 189.278 267.514 191.164C272.163 193.051 276.278 196.05 279.496 199.9C282.714 203.749 284.937 208.33 285.97 213.24C287.002 218.15 286.812 223.239 285.417 228.058C284.022 232.878 281.464 237.281 277.968 240.88C276.895 241.984 275.868 243.023 274.888 243.995C272.526 246.259 270.301 248.662 268.227 251.193C265.66 254.483 264.75 256.898 264.75 258.916V267.666C264.75 269.987 263.828 272.213 262.187 273.854C260.546 275.495 258.321 276.416 256 276.416C253.679 276.416 251.454 275.495 249.813 273.854C248.172 272.213 247.25 269.987 247.25 267.666V258.916C247.25 251.275 250.808 245.08 254.413 240.448C257.085 237.018 260.433 233.681 263.163 230.951C263.988 230.135 264.738 229.38 265.415 228.688C267.213 226.838 268.426 224.499 268.902 221.963C269.378 219.427 269.096 216.807 268.091 214.431C267.087 212.055 265.404 210.027 263.253 208.602C261.103 207.176 258.58 206.416 256 206.417ZM256 314.333C259.094 314.333 262.062 313.104 264.25 310.916C266.438 308.728 267.667 305.761 267.667 302.666C267.667 299.572 266.438 296.605 264.25 294.417C262.062 292.229 259.094 291 256 291C252.906 291 249.938 292.229 247.75 294.417C245.562 296.605 244.333 299.572 244.333 302.666C244.333 305.761 245.562 308.728 247.75 310.916C249.938 313.104 252.906 314.333 256 314.333Z" fill="black"/>
</svg>
