<svg width="512" height="512" viewBox="0 0 512 512" fill="none" xmlns="http://www.w3.org/2000/svg">
<rect width="512" height="512" rx="256" fill="#72A8FF"/>
<path fill-rule="evenodd" clip-rule="evenodd" d="M267.666 151H197.666C191.478 151 185.543 153.458 181.167 157.834C176.791 162.21 174.333 168.145 174.333 174.333V337.667C174.333 343.855 176.791 349.79 181.167 354.166C185.543 358.542 191.478 361 197.666 361H314.333C320.521 361 326.456 358.542 330.832 354.166C335.208 349.79 337.666 343.855 337.666 337.667V221H296.833C289.097 221 281.679 217.927 276.209 212.457C270.739 206.987 267.666 199.569 267.666 191.833V151ZM335.543 209.333C334.373 206.781 332.753 204.461 330.76 202.485L285.586 157.767C283.757 155.953 281.64 154.455 279.321 153.333V191.833C279.321 194.132 279.774 196.409 280.655 198.533C281.535 200.657 282.825 202.587 284.451 204.212C286.077 205.837 288.008 207.126 290.132 208.005C292.257 208.883 294.534 209.335 296.833 209.333H335.543Z" fill="white"/>
<path d="M232.667 304.032V254.635C232.667 253.603 232.94 252.589 233.46 251.697C233.979 250.805 234.726 250.067 235.624 249.559C236.522 249.05 237.539 248.788 238.571 248.801C239.603 248.813 240.613 249.099 241.499 249.63L282.659 274.328C283.524 274.846 284.24 275.579 284.737 276.457C285.234 277.334 285.496 278.325 285.496 279.333C285.496 280.341 285.234 281.333 284.737 282.21C284.24 283.087 283.524 283.82 282.659 284.338L241.499 309.037C240.612 309.568 239.601 309.854 238.568 309.866C237.535 309.878 236.517 309.615 235.619 309.105C234.721 308.595 233.974 307.855 233.456 306.962C232.937 306.068 232.665 305.053 232.667 304.02" fill="black"/>
</svg>
