<svg width="512" height="512" viewBox="0 0 512 512" fill="none" xmlns="http://www.w3.org/2000/svg">
<rect width="512" height="512" rx="256" fill="#72E5FF"/>
<path fill-rule="evenodd" clip-rule="evenodd" d="M139.333 186C139.333 176.717 143.02 167.815 149.584 161.251C156.148 154.687 165.05 151 174.333 151H337.666C346.949 151 355.851 154.687 362.415 161.251C368.979 167.815 372.666 176.717 372.666 186V302.667C372.666 311.949 368.979 320.852 362.415 327.415C355.851 333.979 346.949 337.667 337.666 337.667H201.551L162.666 366.833C153.053 374.043 139.333 367.183 139.333 355.167V186Z" fill="white"/>
<path fill-rule="evenodd" clip-rule="evenodd" d="M209.334 256C206.239 256 203.272 257.229 201.084 259.417C198.896 261.605 197.667 264.572 197.667 267.667C197.667 270.761 198.896 273.728 201.084 275.916C203.272 278.104 206.239 279.333 209.334 279.333H244.334C247.428 279.333 250.395 278.104 252.583 275.916C254.771 273.728 256 270.761 256 267.667C256 264.572 254.771 261.605 252.583 259.417C250.395 257.229 247.428 256 244.334 256H209.334ZM197.667 221C197.667 217.906 198.896 214.938 201.084 212.75C203.272 210.562 206.239 209.333 209.334 209.333H302.667C305.761 209.333 308.729 210.562 310.917 212.75C313.105 214.938 314.334 217.906 314.334 221C314.334 224.094 313.105 227.062 310.917 229.249C308.729 231.437 305.761 232.667 302.667 232.667H209.334C206.239 232.667 203.272 231.437 201.084 229.249C198.896 227.062 197.667 224.094 197.667 221Z" fill="black"/>
</svg>
