<svg width="512" height="512" viewBox="0 0 512 512" fill="none" xmlns="http://www.w3.org/2000/svg">
<rect width="512" height="512" rx="256" fill="#FFBE5C"/>
<path d="M139.333 256C139.333 201.004 139.333 173.505 156.413 156.413C173.516 139.333 201.003 139.333 256 139.333C310.996 139.333 338.495 139.333 355.575 156.413C372.666 173.517 372.666 201.004 372.666 256C372.666 310.997 372.666 338.495 355.575 355.575C338.506 372.667 310.996 372.667 256 372.667C201.003 372.667 173.505 372.667 156.413 355.575C139.333 338.507 139.333 310.997 139.333 256Z" fill="white"/>
<path fill-rule="evenodd" clip-rule="evenodd" d="M252.71 200.175C253.28 197.983 252.978 195.655 251.866 193.681C250.755 191.707 248.922 190.241 246.752 189.591C244.582 188.941 242.244 189.158 240.231 190.197C238.217 191.235 236.685 193.014 235.957 195.159L227.323 223.917H197.667C195.346 223.917 193.12 224.839 191.479 226.48C189.839 228.121 188.917 230.346 188.917 232.667C188.917 234.988 189.839 237.213 191.479 238.854C193.12 240.495 195.346 241.417 197.667 241.417H222.073L213.323 270.584H186C183.679 270.584 181.454 271.505 179.813 273.146C178.172 274.787 177.25 277.013 177.25 279.334C177.25 281.654 178.172 283.88 179.813 285.521C181.454 287.162 183.679 288.084 186 288.084H208.073L200.957 311.814C200.371 314.011 200.663 316.349 201.771 318.335C202.88 320.32 204.718 321.796 206.896 322.45C209.074 323.103 211.42 322.884 213.439 321.837C215.458 320.79 216.989 318.999 217.71 316.842L226.343 288.084H266.407L259.29 311.814C258.704 314.011 258.996 316.349 260.105 318.335C261.213 320.32 263.051 321.796 265.229 322.45C267.407 323.103 269.754 322.884 271.772 321.837C273.791 320.79 275.323 318.999 276.043 316.842L284.677 288.084H314.333C316.654 288.084 318.88 287.162 320.521 285.521C322.161 283.88 323.083 281.654 323.083 279.334C323.083 277.013 322.161 274.787 320.521 273.146C318.88 271.505 316.654 270.584 314.333 270.584H289.927L298.677 241.417H326C328.321 241.417 330.546 240.495 332.187 238.854C333.828 237.213 334.75 234.988 334.75 232.667C334.75 230.346 333.828 228.121 332.187 226.48C330.546 224.839 328.321 223.917 326 223.917H303.927L311.043 200.175C311.613 197.983 311.311 195.655 310.2 193.681C309.089 191.707 307.255 190.241 305.085 189.591C302.915 188.941 300.577 189.158 298.564 190.197C296.551 191.235 295.019 193.014 294.29 195.159L285.657 223.917H245.593L252.71 200.175ZM280.407 241.417L271.657 270.584H231.593L240.343 241.417H280.407Z" fill="black"/>
</svg>
