<svg width="512" height="512" viewBox="0 0 512 512" fill="none" xmlns="http://www.w3.org/2000/svg">
<rect width="512" height="512" rx="256" fill="#FF605E"/>
<path fill-rule="evenodd" clip-rule="evenodd" d="M301.025 136.275C298.275 133.525 294.825 133.65 292.925 133.9C291.138 134.15 288.988 134.75 286.938 135.338L285.375 135.775L284.088 134.975C282.411 133.852 280.657 132.849 278.838 131.975C276.963 131.175 273.825 130.25 270.513 131.988C267.263 133.7 266.188 136.75 265.763 138.7C265.389 140.712 265.138 142.745 265.013 144.788L264.888 146.375V146.5L263.488 147.663C261.813 149.038 260.088 150.45 258.863 151.788C257.563 153.213 255.563 155.875 256.075 159.6C256.6 163.438 259.375 165.425 261.113 166.4C262.688 167.275 264.763 168.025 266.7 168.75L268.05 169.25L268.55 170.613C269.275 172.538 270.038 174.613 270.913 176.188C271.875 177.938 273.863 180.713 277.713 181.238C281.425 181.738 284.088 179.738 285.513 178.438C286.85 177.213 288.275 175.488 289.638 173.813L290.788 172.425H290.925L292.525 172.3C294.625 172.125 296.838 171.95 298.6 171.55C300.55 171.113 303.6 170.05 305.313 166.8C307.063 163.488 306.138 160.325 305.313 158.463C304.443 156.644 303.444 154.889 302.325 153.213L301.525 151.938L301.975 150.363C302.55 148.313 303.163 146.163 303.4 144.375C303.65 142.475 303.775 139.025 301.025 136.275Z" fill="white"/>
<path d="M233.338 133C234.389 133.643 235.303 134.487 236.028 135.483C236.753 136.48 237.274 137.609 237.562 138.807C237.85 140.005 237.899 141.248 237.706 142.465C237.513 143.683 237.082 144.85 236.438 145.9C235.482 147.457 235.08 149.292 235.295 151.106C235.511 152.921 236.332 154.609 237.625 155.9L238.85 157.112C246.213 164.475 248.925 175.287 245.913 185.237C245.57 186.431 244.994 187.545 244.218 188.514C243.441 189.483 242.48 190.289 241.39 190.883C240.3 191.478 239.102 191.85 237.867 191.978C236.632 192.106 235.383 191.987 234.194 191.629C233.005 191.27 231.9 190.679 230.941 189.89C229.982 189.1 229.19 188.128 228.61 187.03C228.031 185.932 227.675 184.729 227.564 183.492C227.452 182.256 227.588 181.009 227.963 179.825C228.457 178.182 228.497 176.436 228.079 174.772C227.661 173.108 226.8 171.589 225.588 170.375L224.375 169.15C220.109 164.884 217.403 159.308 216.691 153.317C215.979 147.327 217.303 141.271 220.45 136.125C221.744 134.005 223.827 132.485 226.241 131.899C228.655 131.313 231.203 131.709 233.325 133M373.625 275.762C371.41 274.786 368.961 274.467 366.569 274.844C364.178 275.221 361.946 276.277 360.138 277.887C355.21 282.266 349.028 284.982 342.469 285.648C335.91 286.315 329.308 284.898 323.6 281.6L320.938 280.062C318.783 278.819 317.21 276.771 316.565 274.368C315.921 271.965 316.257 269.405 317.5 267.25C318.743 265.095 320.792 263.522 323.195 262.878C325.597 262.233 328.158 262.569 330.313 263.812L332.975 265.35C337.688 268.075 343.625 267.475 347.7 263.862C352.185 259.881 357.717 257.267 363.641 256.333C369.565 255.398 375.632 256.18 381.125 258.587L384.763 260.175C387.042 261.169 388.833 263.029 389.741 265.344C390.649 267.658 390.601 270.239 389.606 272.519C388.612 274.798 386.753 276.589 384.438 277.497C382.123 278.405 379.542 278.357 377.263 277.362L373.625 275.762ZM267.45 195.737C266.192 194.481 264.486 193.776 262.708 193.777C260.93 193.778 259.225 194.486 257.969 195.744C256.712 197.002 256.007 198.707 256.008 200.486C256.01 202.264 256.717 203.968 257.975 205.225C259.235 206.481 260.942 207.186 262.722 207.184C264.501 207.181 266.206 206.472 267.463 205.212C268.719 203.953 269.424 202.245 269.421 200.466C269.419 198.687 268.71 196.994 267.45 195.737Z" fill="black"/>
<path fill-rule="evenodd" clip-rule="evenodd" d="M387.551 216.8C390.751 223.725 388.588 231.587 382.75 237.425C379.375 240.8 374.826 242.35 370.788 243.062C366.663 243.8 362.288 243.812 358.463 243.562C353.766 243.26 349.101 242.578 344.513 241.525L344.263 241.462L344.201 241.45H344.163C343.058 241.175 342.049 240.604 341.245 239.798C340.441 238.991 339.872 237.981 339.601 236.875L345.663 235.375L339.601 236.862L339.588 236.837L339.576 236.762L339.513 236.512L339.313 235.637C338.369 231.336 337.75 226.969 337.463 222.575C337.145 218.461 337.313 214.324 337.963 210.25C338.688 206.2 340.213 201.662 343.613 198.287C349.451 192.437 357.313 190.287 364.238 193.487C369.488 195.912 372.901 200.812 374.188 206.85C380.213 208.137 385.113 211.55 387.551 216.8Z" fill="white"/>
<path d="M327.125 165.3C329.56 165.789 331.703 167.224 333.081 169.292C334.459 171.359 334.96 173.889 334.474 176.325L332.675 185.325C330.2 197.7 321.275 207.825 309.3 211.813C303.7 213.688 299.525 218.4 298.375 224.188L296.575 233.188C296.087 235.626 294.651 237.771 292.582 239.15C290.514 240.53 287.982 241.031 285.543 240.544C283.105 240.056 280.96 238.62 279.58 236.552C278.201 234.483 277.7 231.951 278.187 229.513L279.987 220.513C282.462 208.138 291.387 198.013 303.362 194.025C308.962 192.15 313.137 187.438 314.287 181.65L316.1 172.65C316.588 170.214 318.024 168.072 320.091 166.694C322.158 165.315 324.688 164.814 327.125 165.3ZM192.612 155.538C193.233 154.908 193.972 154.408 194.786 154.066C195.601 153.723 196.475 153.545 197.359 153.542C198.243 153.539 199.119 153.711 199.936 154.048C200.753 154.384 201.495 154.879 202.12 155.504C202.745 156.129 203.24 156.872 203.577 157.689C203.914 158.506 204.086 159.382 204.083 160.265C204.079 161.149 203.902 162.024 203.559 162.838C203.217 163.653 202.716 164.392 202.087 165.013C200.828 166.255 199.128 166.948 197.359 166.942C195.59 166.936 193.896 166.23 192.645 164.98C191.394 163.729 190.689 162.034 190.683 160.265C190.676 158.497 191.37 156.797 192.612 155.538Z" fill="white"/>
<path d="M353.713 297.687C353.089 297.064 352.349 296.571 351.534 296.234C350.719 295.897 349.846 295.724 348.965 295.724C348.083 295.725 347.21 295.899 346.396 296.237C345.582 296.575 344.842 297.07 344.219 297.694C343.596 298.317 343.102 299.058 342.765 299.873C342.428 300.687 342.255 301.56 342.256 302.442C342.256 303.323 342.431 304.196 342.769 305.011C343.106 305.825 343.601 306.564 344.225 307.187C345.485 308.446 347.193 309.152 348.973 309.151C350.754 309.149 352.461 308.441 353.719 307.181C354.977 305.921 355.683 304.213 355.682 302.433C355.681 300.653 354.972 298.946 353.713 297.687Z" fill="white"/>
<path d="M320.475 233.25C321.095 232.62 321.833 232.119 322.647 231.775C323.462 231.432 324.336 231.253 325.22 231.249C326.103 231.245 326.979 231.415 327.797 231.751C328.614 232.087 329.357 232.581 329.983 233.205C330.608 233.829 331.104 234.571 331.442 235.387C331.78 236.204 331.953 237.079 331.951 237.963C331.949 238.847 331.773 239.721 331.431 240.536C331.09 241.352 330.591 242.091 329.963 242.713C329.341 243.336 328.602 243.83 327.789 244.167C326.975 244.505 326.104 244.679 325.223 244.679C324.343 244.68 323.471 244.507 322.657 244.171C321.844 243.834 321.104 243.341 320.481 242.719C319.858 242.097 319.364 241.358 319.027 240.545C318.689 239.732 318.515 238.86 318.515 237.979C318.514 237.099 318.687 236.227 319.023 235.414C319.36 234.6 319.853 233.861 320.475 233.238" fill="white"/>
<path d="M156.15 303.025L177.275 239.663C186.85 210.938 191.638 196.575 202.963 193.913C214.288 191.225 225 201.938 246.4 223.35L288.65 265.588C310.05 287 320.763 297.7 318.088 309.025C315.413 320.35 301.05 325.15 272.325 334.713L208.963 355.838C174.4 367.363 157.113 373.125 147.988 364C138.863 354.875 144.625 337.588 156.15 303.025Z" fill="white"/>
<path d="M216 199.8L216.625 196.737C211.725 193.862 207.387 192.862 202.962 193.9C201.189 194.322 199.507 195.063 198 196.087L206.7 197.887C200.725 196.637 198.687 196.225 198 196.087L197.562 196.387L197.5 196.712C196.881 199.746 196.306 202.788 195.775 205.837C194.323 213.891 193.027 221.972 191.887 230.075C189.2 249.237 186.7 273.725 187.987 293.287C188.762 305.137 191.237 319.825 193.425 331.287C194.63 337.569 195.93 343.832 197.325 350.075L197.587 351.237L197.662 351.55L197.687 351.662L199.4 359.012L208.962 355.837L217.262 353.075L215.937 347.325L215.862 347.062L215.612 345.962L214.712 341.837C213.699 337.161 212.741 332.474 211.837 327.775C209.675 316.437 207.4 302.687 206.7 292.062C205.55 274.512 207.8 251.625 210.45 232.687C211.976 221.884 213.785 211.122 215.875 200.412L215.975 199.95L216 199.825V199.8ZM269 335.825L251.2 341.762L250.05 338.287L250.037 338.25L250.012 338.175L249.925 337.9C249.416 336.368 248.936 334.826 248.487 333.275C247.562 330.187 246.337 325.9 245.112 320.987C242.712 311.362 240.087 298.587 240.087 287.937C240.087 277.287 242.712 264.512 245.112 254.9C246.535 249.208 248.14 243.564 249.925 237.975L250.012 237.712L250.037 237.625L258.95 240.55L250.05 237.6L252.7 229.637L267.525 244.475L267.475 244.65L266.45 247.987C265.587 250.862 264.45 254.862 263.3 259.437C260.962 268.812 258.837 279.712 258.837 287.937C258.837 296.162 260.962 307.075 263.3 316.437C264.621 321.703 266.105 326.926 267.75 332.1L267.825 332.312L267.837 332.362L269 335.825Z" fill="black"/>
</svg>